<svg xmlns="http://www.w3.org/2000/svg">
	<symbol id="grid" width="104" height="104" viewBox="0 0 104 104">
		<path d="M8 76H96V88C96 91.3137 93.3137 94 90 94H14C10.6863 94 8 91.3137 8 88V76Z" fill="#8e9195"/>
		<path d="M14 12C11 12 8 14.9677 8 18V28H96V18C96 15 93 12 90 12H14Z" fill="#ffffff"/>
		<path d="M14 92C11 92 8 89 8 86V76H96V86C96 89 93 92 90 92H14Z" fill="#ffffff"/>
		<path d="M96 28H8V44H96V28Z" fill="#e1e2e4"/>
		<path d="M96 60H8V76H96V60Z" fill="#e1e2e4"/>
		<path d="M8 44H96V60H8V44Z" fill="#c5c7c9"/>
		<circle cx="16" cy="20" r="4" fill="#50a534"/>
		<circle cx="28" cy="20" r="4" fill="#d27370"/>
		<circle cx="40" cy="20" r="4" fill="#ecc063"/>
		<path d="M66 72C66 67.5817 69.5817 64 74 64H94C98.4183 64 102 67.5817 102 72V92C102 96.4183 98.4183 100 94 100H74C69.5817 100 66 96.4183 66 92V72Z" fill="#c5c7c9"/>
		<path d="M66 70C66 65.5817 69.5817 62 74 62H94C98.4183 62 102 65.5817 102 70V90C102 94.4183 98.4183 98 94 98H74C69.5817 98 66 94.4183 66 90V70Z" fill="#ffffff"/>
		<path d="M72 89C72 87.8954 72.8954 87 74 87H94C95.1046 87 96 87.8954 96 89C96 90.1046 95.1046 91 94 91H74C72.8954 91 72 90.1046 72 89Z" fill="#8a63ba"/>
		<path d="M72 71C72 69.8954 72.8954 69 74 69H88C89.1046 69 90 69.8954 90 71C90 72.1046 89.1046 73 88 73H74C72.8954 73 72 72.1046 72 71Z" fill="#c5c7c9"/>
		<path d="M72 80C72 78.8954 72.8954 78 74 78H94C95.1046 78 96 78.8954 96 80C96 81.1046 95.1046 82 94 82H74C72.8954 82 72 81.1046 72 80Z" fill="#c5c7c9"/>
		<path d="M94 69C92.8954 69 92 69.8954 92 71C92 72.1046 92.8954 73 94 73C95.1046 73 96 72.1046 96 71C96 69.8954 95.1046 69 94 69Z" fill="#c5c7c9"/>
		<path d="M14 34C12.8954 34 12 34.8954 12 36C12 37.1046 12.8954 38 14 38H29C30.1046 38 31 37.1046 31 36C31 34.8954 30.1046 34 29 34H14Z" fill="#8e9195"/>
		<path d="M14 50C12.8954 50 12 50.8954 12 52C12 53.1046 12.8954 54 14 54H32C33.1046 54 34 53.1046 34 52C34 50.8954 33.1046 50 32 50H14Z" fill="#8e9195"/>
		<path d="M12 68C12 66.8954 12.8954 66 14 66H24C25.1046 66 26 66.8954 26 68C26 69.1046 25.1046 70 24 70H14C12.8954 70 12 69.1046 12 68Z" fill="#8e9195"/>
		<path d="M44 34C42.8954 34 42 34.8954 42 36C42 37.1046 42.8954 38 44 38H62C63.1046 38 64 37.1046 64 36C64 34.8954 63.1046 34 62 34H44Z" fill="#8e9195"/>
		<path d="M72 36C72 34.8954 72.8954 34 74 34H82C83.1046 34 84 34.8954 84 36C84 37.1046 83.1046 38 82 38H74C72.8954 38 72 37.1046 72 36Z" fill="#8e9195"/>
		<path d="M30 66C28.8954 66 28 66.8954 28 68C28 69.1046 28.8954 70 30 70C31.1046 70 32 69.1046 32 68C32 66.8954 31.1046 66 30 66Z" fill="#8e9195"/>
		<path d="M86 36C86 34.8954 86.8954 34 88 34C89.1046 34 90 34.8954 90 36C90 37.1046 89.1046 38 88 38C86.8954 38 86 37.1046 86 36Z" fill="#8e9195"/>
		<path d="M44 50C42.8954 50 42 50.8954 42 52C42 53.1046 42.8954 54 44 54H55C56.1046 54 57 53.1046 57 52C57 50.8954 56.1046 50 55 50H44Z" fill="#8e9195"/>
		<path d="M72 52C72 50.8954 72.8954 50 74 50H90C91.1046 50 92 50.8954 92 52C92 53.1046 91.1046 54 90 54H74C72.8954 54 72 53.1046 72 52Z" fill="#8e9195"/>
		<path d="M44 66C42.8954 66 42 66.8954 42 68C42 69.1046 42.8954 70 44 70H60C61.1046 70 62 69.1046 62 68C62 66.8954 61.1046 66 60 66H44Z" fill="#8e9195"/>
	</symbol>
	<symbol id="reports" width="104" height="104" viewBox="0 0 104 104">
		<path d="M13 19C13 14.5817 16.5817 11 21 11H63.4L85 32.0435V91C85 95.4183 81.4183 99 77 99H21C16.5817 99 13 95.4183 13 91V19Z" fill="#e1e2e4" />
		<path d="M19 13C19 8.58172 22.5817 5 27 5H69.4L91 26.0435V85C91 89.4183 87.4183 93 83 93H27C22.5817 93 19 89.4183 19 85V13Z" fill="#ffffff" />
		<path fill-rule="evenodd" clip-rule="evenodd" d="M54.9999 17C63.8366 17 71 24.1635 71 33C71 41.8365 63.8366 49 54.9999 49C46.1634 49 39 41.8365 39 33C39 24.1635 46.1634 17 54.9999 17Z" fill="#8a63ba" />
		<path fill-rule="evenodd" clip-rule="evenodd" d="M52.9914 31.581V16.3838C52.9914 14.1657 55.1741 12.5424 57.4219 13.0796C66.3402 15.2108 73.2522 22.183 74.9108 30.9191C75.3114 33.0278 73.6586 34.9821 71.42 34.9821H56.5442C54.582 34.9821 52.9914 33.4593 52.9914 31.581Z" fill="#cfc0e3" />
		<path d="M33 61C33 59.8954 33.8954 59 35 59C36.1046 59 37 59.8954 37 61C37 62.1046 36.1046 63 35 63C33.8954 63 33 62.1046 33 61Z" fill="#c5c7c9" />
		<path d="M35 67C33.8954 67 33 67.8954 33 69C33 70.1046 33.8954 71 35 71C36.1046 71 37 70.1046 37 69C37 67.8954 36.1046 67 35 67Z" fill="#c5c7c9" />
		<path d="M35 75C33.8954 75 33 75.8954 33 77C33 78.1046 33.8954 79 35 79C36.1046 79 37 78.1046 37 77C37 75.8954 36.1046 75 35 75Z" fill="#c5c7c9" />
		<path d="M43 59C41.8954 59 41 59.8954 41 61C41 62.1046 41.8954 63 43 63H71C72.1046 63 73 62.1046 73 61C73 59.8954 72.1046 59 71 59H43Z" fill="#c5c7c9" />
		<path d="M41 69C41 67.8954 41.8954 67 43 67H75C76.1046 67 77 67.8954 77 69C77 70.1046 76.1046 71 75 71H43C41.8954 71 41 70.1046 41 69Z" fill="#c5c7c9" />
		<path d="M43 75C41.8954 75 41 75.8954 41 77C41 78.1046 41.8954 79 43 79H67C68.1046 79 69 78.1046 69 77C69 75.8954 68.1046 75 67 75H43Z" fill="#c5c7c9" />
	</symbol>
</svg>
